<mxfile host="app.diagrams.net" modified="2023-09-24T11:06:22.105Z" agent="Mozilla/5.0 (Windows NT 10.0; Win64; x64) AppleWebKit/537.36 (KHTML, like Gecko) Chrome/117.0.0.0 Safari/537.36 Edg/117.0.2045.36" etag="ULZqbK0KxvYwAY0L6NhS" version="21.7.5" type="github">
  <diagram name="Page-1" id="VeXsjyThCuEXq61cQmM3">
    <mxGraphModel dx="1489" dy="1924" grid="1" gridSize="10" guides="1" tooltips="1" connect="1" arrows="1" fold="1" page="1" pageScale="1" pageWidth="850" pageHeight="1100" math="0" shadow="0">
      <root>
        <mxCell id="0" />
        <mxCell id="1" parent="0" />
        <mxCell id="ZYYfAp_twXrbIcZO6G4g-4" value="" style="rounded=0;whiteSpace=wrap;html=1;" vertex="1" parent="1">
          <mxGeometry x="316" y="-300" width="360" height="190" as="geometry" />
        </mxCell>
        <mxCell id="JtNwJvJBWFGSNwz0xdhZ-2" value="" style="whiteSpace=wrap;html=1;aspect=fixed;" parent="1" vertex="1">
          <mxGeometry x="300" y="-30" width="376" height="376" as="geometry" />
        </mxCell>
        <mxCell id="JtNwJvJBWFGSNwz0xdhZ-13" style="edgeStyle=orthogonalEdgeStyle;rounded=0;orthogonalLoop=1;jettySize=auto;html=1;exitX=0.75;exitY=0.1;exitDx=0;exitDy=0;exitPerimeter=0;entryX=0;entryY=0.5;entryDx=0;entryDy=0;" parent="1" source="JtNwJvJBWFGSNwz0xdhZ-3" target="JtNwJvJBWFGSNwz0xdhZ-4" edge="1">
          <mxGeometry relative="1" as="geometry" />
        </mxCell>
        <mxCell id="JtNwJvJBWFGSNwz0xdhZ-19" value="Task" style="edgeLabel;html=1;align=center;verticalAlign=middle;resizable=0;points=[];" parent="JtNwJvJBWFGSNwz0xdhZ-13" vertex="1" connectable="0">
          <mxGeometry x="-0.0978" y="-1" relative="1" as="geometry">
            <mxPoint as="offset" />
          </mxGeometry>
        </mxCell>
        <mxCell id="JtNwJvJBWFGSNwz0xdhZ-3" value="Actor" style="shape=umlActor;verticalLabelPosition=bottom;verticalAlign=top;html=1;outlineConnect=0;" parent="1" vertex="1">
          <mxGeometry x="40" y="40" width="30" height="60" as="geometry" />
        </mxCell>
        <mxCell id="JtNwJvJBWFGSNwz0xdhZ-38" style="edgeStyle=orthogonalEdgeStyle;rounded=0;orthogonalLoop=1;jettySize=auto;html=1;exitX=1;exitY=1;exitDx=0;exitDy=0;entryX=0;entryY=0;entryDx=0;entryDy=0;" parent="1" target="JtNwJvJBWFGSNwz0xdhZ-14" edge="1">
          <mxGeometry relative="1" as="geometry">
            <mxPoint x="286.56961030678957" y="68.81980515339455" as="sourcePoint" />
            <mxPoint x="483.43000000000023" y="80" as="targetPoint" />
            <Array as="points">
              <mxPoint x="287" y="70" />
              <mxPoint x="480" y="70" />
            </Array>
          </mxGeometry>
        </mxCell>
        <mxCell id="ZYYfAp_twXrbIcZO6G4g-10" style="edgeStyle=orthogonalEdgeStyle;rounded=0;orthogonalLoop=1;jettySize=auto;html=1;exitX=0.5;exitY=0;exitDx=0;exitDy=0;entryX=0.5;entryY=1;entryDx=0;entryDy=0;" edge="1" parent="1" source="JtNwJvJBWFGSNwz0xdhZ-4" target="ZYYfAp_twXrbIcZO6G4g-5">
          <mxGeometry relative="1" as="geometry" />
        </mxCell>
        <mxCell id="JtNwJvJBWFGSNwz0xdhZ-4" value="&amp;nbsp; &amp;nbsp; &amp;nbsp; &amp;nbsp; AI-ML GPS Software" style="ellipse;whiteSpace=wrap;html=1;fontColor=#000000;" parent="1" vertex="1">
          <mxGeometry x="129.5" width="180" height="90" as="geometry" />
        </mxCell>
        <mxCell id="JtNwJvJBWFGSNwz0xdhZ-26" style="edgeStyle=orthogonalEdgeStyle;rounded=0;orthogonalLoop=1;jettySize=auto;html=1;exitX=0;exitY=0;exitDx=0;exitDy=0;entryX=1;entryY=1;entryDx=0;entryDy=0;" parent="1" source="JtNwJvJBWFGSNwz0xdhZ-14" target="JtNwJvJBWFGSNwz0xdhZ-4" edge="1">
          <mxGeometry relative="1" as="geometry">
            <Array as="points">
              <mxPoint x="480" y="70" />
              <mxPoint x="283" y="70" />
            </Array>
          </mxGeometry>
        </mxCell>
        <mxCell id="JtNwJvJBWFGSNwz0xdhZ-35" style="edgeStyle=orthogonalEdgeStyle;rounded=0;orthogonalLoop=1;jettySize=auto;html=1;exitX=0;exitY=0.25;exitDx=0;exitDy=0;entryX=1;entryY=0.5;entryDx=0;entryDy=0;" parent="1" source="JtNwJvJBWFGSNwz0xdhZ-14" target="JtNwJvJBWFGSNwz0xdhZ-21" edge="1">
          <mxGeometry relative="1" as="geometry" />
        </mxCell>
        <mxCell id="JtNwJvJBWFGSNwz0xdhZ-37" style="edgeStyle=orthogonalEdgeStyle;rounded=0;orthogonalLoop=1;jettySize=auto;html=1;exitX=0;exitY=0.75;exitDx=0;exitDy=0;entryX=1;entryY=0.5;entryDx=0;entryDy=0;" parent="1" source="JtNwJvJBWFGSNwz0xdhZ-14" target="JtNwJvJBWFGSNwz0xdhZ-22" edge="1">
          <mxGeometry relative="1" as="geometry">
            <Array as="points">
              <mxPoint x="480" y="210" />
            </Array>
          </mxGeometry>
        </mxCell>
        <mxCell id="JtNwJvJBWFGSNwz0xdhZ-39" style="edgeStyle=orthogonalEdgeStyle;rounded=0;orthogonalLoop=1;jettySize=auto;html=1;exitX=0.5;exitY=1;exitDx=0;exitDy=0;entryX=1;entryY=0.5;entryDx=0;entryDy=0;" parent="1" source="JtNwJvJBWFGSNwz0xdhZ-14" target="JtNwJvJBWFGSNwz0xdhZ-23" edge="1">
          <mxGeometry relative="1" as="geometry" />
        </mxCell>
        <mxCell id="ZYYfAp_twXrbIcZO6G4g-17" style="edgeStyle=orthogonalEdgeStyle;rounded=0;orthogonalLoop=1;jettySize=auto;html=1;exitX=1;exitY=0.5;exitDx=0;exitDy=0;entryX=0;entryY=0.5;entryDx=0;entryDy=0;" edge="1" parent="1" source="JtNwJvJBWFGSNwz0xdhZ-20" target="ZYYfAp_twXrbIcZO6G4g-5">
          <mxGeometry relative="1" as="geometry" />
        </mxCell>
        <mxCell id="JtNwJvJBWFGSNwz0xdhZ-20" value="VCNL4200&lt;br&gt;proximity&lt;br/&gt;sensor" style="whiteSpace=wrap;html=1;aspect=fixed;" parent="1" vertex="1">
          <mxGeometry x="330" y="-290" width="70" height="70" as="geometry" />
        </mxCell>
        <mxCell id="JtNwJvJBWFGSNwz0xdhZ-16" value="" style="sketch=0;points=[[0,0,0],[0.25,0,0],[0.5,0,0],[0.75,0,0],[1,0,0],[0,1,0],[0.25,1,0],[0.5,1,0],[0.75,1,0],[1,1,0],[0,0.25,0],[0,0.5,0],[0,0.75,0],[1,0.25,0],[1,0.5,0],[1,0.75,0]];outlineConnect=0;fontColor=#232F3E;fillColor=#01A88D;strokeColor=#ffffff;dashed=0;verticalLabelPosition=bottom;verticalAlign=top;align=center;html=1;fontSize=12;fontStyle=0;aspect=fixed;shape=mxgraph.aws4.resourceIcon;resIcon=mxgraph.aws4.machine_learning;" parent="1" vertex="1">
          <mxGeometry x="150" y="32.75" width="24.5" height="24.5" as="geometry" />
        </mxCell>
        <mxCell id="JtNwJvJBWFGSNwz0xdhZ-28" style="edgeStyle=orthogonalEdgeStyle;rounded=0;orthogonalLoop=1;jettySize=auto;html=1;exitX=1;exitY=0.5;exitDx=0;exitDy=0;entryX=0;entryY=0.25;entryDx=0;entryDy=0;" parent="1" source="JtNwJvJBWFGSNwz0xdhZ-21" target="JtNwJvJBWFGSNwz0xdhZ-14" edge="1">
          <mxGeometry relative="1" as="geometry" />
        </mxCell>
        <mxCell id="JtNwJvJBWFGSNwz0xdhZ-21" value="DHT11 – Temperature and Humidity Sensor" style="rounded=1;whiteSpace=wrap;html=1;" parent="1" vertex="1">
          <mxGeometry x="320" y="120" width="80" height="58" as="geometry" />
        </mxCell>
        <mxCell id="JtNwJvJBWFGSNwz0xdhZ-27" style="edgeStyle=orthogonalEdgeStyle;rounded=0;orthogonalLoop=1;jettySize=auto;html=1;exitX=1;exitY=0.5;exitDx=0;exitDy=0;entryX=0;entryY=0.75;entryDx=0;entryDy=0;" parent="1" source="JtNwJvJBWFGSNwz0xdhZ-22" target="JtNwJvJBWFGSNwz0xdhZ-14" edge="1">
          <mxGeometry relative="1" as="geometry">
            <Array as="points">
              <mxPoint x="480" y="210" />
            </Array>
          </mxGeometry>
        </mxCell>
        <mxCell id="JtNwJvJBWFGSNwz0xdhZ-22" value="LDR – Light Dependent Resistor" style="rounded=1;whiteSpace=wrap;html=1;" parent="1" vertex="1">
          <mxGeometry x="320" y="190" width="80" height="40" as="geometry" />
        </mxCell>
        <mxCell id="JtNwJvJBWFGSNwz0xdhZ-29" style="edgeStyle=orthogonalEdgeStyle;rounded=0;orthogonalLoop=1;jettySize=auto;html=1;exitX=1;exitY=0.5;exitDx=0;exitDy=0;entryX=0.5;entryY=1;entryDx=0;entryDy=0;" parent="1" source="JtNwJvJBWFGSNwz0xdhZ-23" target="JtNwJvJBWFGSNwz0xdhZ-14" edge="1">
          <mxGeometry relative="1" as="geometry" />
        </mxCell>
        <mxCell id="JtNwJvJBWFGSNwz0xdhZ-23" value="LM35 – Temperature Sensor" style="rounded=1;whiteSpace=wrap;html=1;" parent="1" vertex="1">
          <mxGeometry x="320" y="260" width="80" height="40" as="geometry" />
        </mxCell>
        <mxCell id="ZYYfAp_twXrbIcZO6G4g-15" style="edgeStyle=orthogonalEdgeStyle;rounded=0;orthogonalLoop=1;jettySize=auto;html=1;exitX=0.5;exitY=0;exitDx=0;exitDy=0;entryX=1;entryY=0.5;entryDx=0;entryDy=0;" edge="1" parent="1" source="JtNwJvJBWFGSNwz0xdhZ-24" target="JtNwJvJBWFGSNwz0xdhZ-14">
          <mxGeometry relative="1" as="geometry" />
        </mxCell>
        <mxCell id="JtNwJvJBWFGSNwz0xdhZ-24" value="serial port" style="rounded=1;whiteSpace=wrap;html=1;" parent="1" vertex="1">
          <mxGeometry x="560" y="230" width="80" height="40" as="geometry" />
        </mxCell>
        <mxCell id="ZYYfAp_twXrbIcZO6G4g-19" style="edgeStyle=orthogonalEdgeStyle;rounded=0;orthogonalLoop=1;jettySize=auto;html=1;exitX=0;exitY=0.5;exitDx=0;exitDy=0;entryX=1;entryY=0.5;entryDx=0;entryDy=0;" edge="1" parent="1" source="JtNwJvJBWFGSNwz0xdhZ-25" target="ZYYfAp_twXrbIcZO6G4g-5">
          <mxGeometry relative="1" as="geometry" />
        </mxCell>
        <mxCell id="JtNwJvJBWFGSNwz0xdhZ-25" value="LiDAR&lt;br/&gt;sensor&amp;nbsp;" style="whiteSpace=wrap;html=1;aspect=fixed;" parent="1" vertex="1">
          <mxGeometry x="590" y="-290" width="70" height="70" as="geometry" />
        </mxCell>
        <mxCell id="ZYYfAp_twXrbIcZO6G4g-22" style="edgeStyle=orthogonalEdgeStyle;rounded=0;orthogonalLoop=1;jettySize=auto;html=1;exitX=0.5;exitY=0;exitDx=0;exitDy=0;exitPerimeter=0;entryX=0.75;entryY=1;entryDx=0;entryDy=0;" edge="1" parent="1" source="JtNwJvJBWFGSNwz0xdhZ-33" target="ZYYfAp_twXrbIcZO6G4g-5">
          <mxGeometry relative="1" as="geometry">
            <Array as="points">
              <mxPoint x="785" y="-60" />
              <mxPoint x="524" y="-60" />
            </Array>
          </mxGeometry>
        </mxCell>
        <mxCell id="ZYYfAp_twXrbIcZO6G4g-24" style="edgeStyle=orthogonalEdgeStyle;rounded=0;orthogonalLoop=1;jettySize=auto;html=1;exitX=0;exitY=0.3333333333333333;exitDx=0;exitDy=0;exitPerimeter=0;entryX=1;entryY=0.25;entryDx=0;entryDy=0;" edge="1" parent="1" source="JtNwJvJBWFGSNwz0xdhZ-33" target="JtNwJvJBWFGSNwz0xdhZ-14">
          <mxGeometry relative="1" as="geometry" />
        </mxCell>
        <mxCell id="JtNwJvJBWFGSNwz0xdhZ-33" value="Loders and dumpers" style="shape=umlActor;verticalLabelPosition=bottom;verticalAlign=top;html=1;outlineConnect=0;" parent="1" vertex="1">
          <mxGeometry x="770" y="118" width="30" height="60" as="geometry" />
        </mxCell>
        <mxCell id="ZYYfAp_twXrbIcZO6G4g-1" value="" style="edgeStyle=orthogonalEdgeStyle;rounded=0;orthogonalLoop=1;jettySize=auto;html=1;exitX=1;exitY=0.5;exitDx=0;exitDy=0;entryX=0.5;entryY=0;entryDx=0;entryDy=0;entryPerimeter=0;" edge="1" parent="1" source="JtNwJvJBWFGSNwz0xdhZ-4" target="JtNwJvJBWFGSNwz0xdhZ-14">
          <mxGeometry relative="1" as="geometry">
            <Array as="points" />
            <mxPoint x="320" y="70" as="sourcePoint" />
            <mxPoint x="745" y="118" as="targetPoint" />
          </mxGeometry>
        </mxCell>
        <mxCell id="ZYYfAp_twXrbIcZO6G4g-16" style="edgeStyle=orthogonalEdgeStyle;rounded=0;orthogonalLoop=1;jettySize=auto;html=1;exitX=1;exitY=0.5;exitDx=0;exitDy=0;entryX=0.5;entryY=0;entryDx=0;entryDy=0;" edge="1" parent="1" source="JtNwJvJBWFGSNwz0xdhZ-14" target="JtNwJvJBWFGSNwz0xdhZ-24">
          <mxGeometry relative="1" as="geometry" />
        </mxCell>
        <mxCell id="ZYYfAp_twXrbIcZO6G4g-23" style="edgeStyle=orthogonalEdgeStyle;rounded=0;orthogonalLoop=1;jettySize=auto;html=1;exitX=1;exitY=0.25;exitDx=0;exitDy=0;entryX=0;entryY=0.3333333333333333;entryDx=0;entryDy=0;entryPerimeter=0;" edge="1" parent="1" source="JtNwJvJBWFGSNwz0xdhZ-14" target="JtNwJvJBWFGSNwz0xdhZ-33">
          <mxGeometry relative="1" as="geometry" />
        </mxCell>
        <mxCell id="JtNwJvJBWFGSNwz0xdhZ-14" value="&lt;br&gt;&lt;br&gt;Micro-controller" style="whiteSpace=wrap;html=1;aspect=fixed;" parent="1" vertex="1">
          <mxGeometry x="480" y="88" width="90" height="90" as="geometry" />
        </mxCell>
        <mxCell id="ZYYfAp_twXrbIcZO6G4g-11" style="edgeStyle=orthogonalEdgeStyle;rounded=0;orthogonalLoop=1;jettySize=auto;html=1;exitX=0.5;exitY=1;exitDx=0;exitDy=0;entryX=0.5;entryY=0;entryDx=0;entryDy=0;" edge="1" parent="1" source="ZYYfAp_twXrbIcZO6G4g-5" target="JtNwJvJBWFGSNwz0xdhZ-4">
          <mxGeometry relative="1" as="geometry" />
        </mxCell>
        <mxCell id="ZYYfAp_twXrbIcZO6G4g-18" style="edgeStyle=orthogonalEdgeStyle;rounded=0;orthogonalLoop=1;jettySize=auto;html=1;exitX=0;exitY=0.5;exitDx=0;exitDy=0;entryX=1;entryY=0.5;entryDx=0;entryDy=0;" edge="1" parent="1" source="ZYYfAp_twXrbIcZO6G4g-5" target="JtNwJvJBWFGSNwz0xdhZ-20">
          <mxGeometry relative="1" as="geometry" />
        </mxCell>
        <mxCell id="ZYYfAp_twXrbIcZO6G4g-20" style="edgeStyle=orthogonalEdgeStyle;rounded=0;orthogonalLoop=1;jettySize=auto;html=1;exitX=1;exitY=0.5;exitDx=0;exitDy=0;entryX=0;entryY=0.5;entryDx=0;entryDy=0;" edge="1" parent="1" source="ZYYfAp_twXrbIcZO6G4g-5" target="JtNwJvJBWFGSNwz0xdhZ-25">
          <mxGeometry relative="1" as="geometry" />
        </mxCell>
        <mxCell id="ZYYfAp_twXrbIcZO6G4g-21" style="edgeStyle=orthogonalEdgeStyle;rounded=0;orthogonalLoop=1;jettySize=auto;html=1;exitX=0.75;exitY=1;exitDx=0;exitDy=0;entryX=0.5;entryY=0;entryDx=0;entryDy=0;entryPerimeter=0;" edge="1" parent="1" source="ZYYfAp_twXrbIcZO6G4g-5" target="JtNwJvJBWFGSNwz0xdhZ-33">
          <mxGeometry relative="1" as="geometry">
            <Array as="points">
              <mxPoint x="524" y="-60" />
              <mxPoint x="785" y="-60" />
            </Array>
          </mxGeometry>
        </mxCell>
        <mxCell id="ZYYfAp_twXrbIcZO6G4g-5" value="&lt;br&gt;&lt;br&gt;Micro-controller" style="rounded=0;whiteSpace=wrap;html=1;" vertex="1" parent="1">
          <mxGeometry x="450" y="-210" width="98" height="80" as="geometry" />
        </mxCell>
        <mxCell id="ZYYfAp_twXrbIcZO6G4g-6" value="" style="dashed=0;outlineConnect=0;html=1;align=center;labelPosition=center;verticalLabelPosition=bottom;verticalAlign=top;shape=mxgraph.weblogos.arduino;fillColor=#36868D;strokeColor=none" vertex="1" parent="1">
          <mxGeometry x="472" y="-200" width="54" height="30" as="geometry" />
        </mxCell>
        <mxCell id="ZYYfAp_twXrbIcZO6G4g-8" value="" style="dashed=0;outlineConnect=0;html=1;align=center;labelPosition=center;verticalLabelPosition=bottom;verticalAlign=top;shape=mxgraph.weblogos.arduino;fillColor=#36868D;strokeColor=none" vertex="1" parent="1">
          <mxGeometry x="494" y="100" width="54" height="30" as="geometry" />
        </mxCell>
      </root>
    </mxGraphModel>
  </diagram>
</mxfile>
